<svg width="70" height="26" viewBox="0 0 70 26" fill="none" xmlns="http://www.w3.org/2000/svg">
<rect x="0.5" y="0.5" width="69" height="25" rx="3.5" fill="#DBF8EF"/>
<path d="M9.86621 9.3457C10.682 8.42969 11.7894 7.97168 13.1885 7.97168C14.5876 7.97168 15.695 8.42969 16.5107 9.3457C17.3265 10.2617 17.7344 11.5036 17.7344 13.0713C17.7344 14.639 17.3265 15.8809 16.5107 16.7969C15.695 17.7083 14.5876 18.1641 13.1885 18.1641C11.7894 18.1641 10.682 17.7083 9.86621 16.7969C9.05046 15.8809 8.64258 14.639 8.64258 13.0713C8.64258 11.5036 9.05046 10.2617 9.86621 9.3457ZM15.5811 10.1797C14.9932 9.46419 14.1956 9.10645 13.1885 9.10645C12.1813 9.10645 11.3815 9.46419 10.7891 10.1797C10.2012 10.8906 9.90723 11.8545 9.90723 13.0713C9.90723 14.2835 10.2012 15.2474 10.7891 15.9629C11.3815 16.6738 12.1813 17.0293 13.1885 17.0293C14.1956 17.0293 14.9932 16.6738 15.5811 15.9629C16.1735 15.2474 16.4697 14.2835 16.4697 13.0713C16.4697 11.8545 16.1735 10.8906 15.5811 10.1797ZM24.4131 10.8906V11.8682H22.1162V18H20.9404V11.8682H18.6436V10.8906H24.4131ZM26.8672 14.8623C26.8353 15.2725 26.7897 15.6348 26.7305 15.9492C26.6758 16.2637 26.596 16.5576 26.4912 16.8311C26.3864 17.1045 26.2565 17.3301 26.1016 17.5078C25.9512 17.681 25.762 17.8177 25.5342 17.918C25.3109 18.0137 25.0511 18.0615 24.7549 18.0615C24.5908 18.0615 24.4495 18.0365 24.3311 17.9863V16.9131C24.4404 16.9495 24.5612 16.9678 24.6934 16.9678C25.026 16.9678 25.2744 16.7878 25.4385 16.4277C25.6025 16.0632 25.7074 15.5322 25.7529 14.835L26.0264 10.8906H30.6816V18H29.5059V11.8682H27.0859L26.8672 14.8623ZM33.5391 18H32.3633V10.8906H33.5391V16.1816H33.5938L37.1484 10.8906H38.3242V18H37.1484V12.709H37.0938L33.5391 18ZM45.4131 18H44.2373V14.9307H44.1348C43.7064 15.2998 43.1322 15.4844 42.4121 15.4844C41.5781 15.4844 40.9355 15.2542 40.4844 14.7939C40.0378 14.3337 39.8145 13.7139 39.8145 12.9346V10.8906H40.9902V12.9209C40.9902 13.3949 41.1156 13.7686 41.3662 14.042C41.6169 14.3109 41.9769 14.4453 42.4463 14.4453C43.2256 14.4453 43.8226 14.2129 44.2373 13.748V10.8906H45.4131V18ZM51.7705 18V14.8008H48.2637V18H47.0879V10.8906H48.2637V13.8232H51.7705V10.8906H52.9463V18H51.7705ZM57.5742 18.123C56.5807 18.123 55.7832 17.7926 55.1816 17.1318C54.5801 16.4665 54.2793 15.571 54.2793 14.4453C54.2793 13.3197 54.5801 12.4264 55.1816 11.7656C55.7832 11.1003 56.5807 10.7676 57.5742 10.7676C58.5632 10.7676 59.3584 11.1003 59.96 11.7656C60.5615 12.4264 60.8623 13.3197 60.8623 14.4453C60.8623 15.5664 60.5615 16.4596 59.96 17.125C59.3584 17.7904 58.5632 18.123 57.5742 18.123ZM56.0498 16.3799C56.4281 16.8447 56.9362 17.0771 57.5742 17.0771C58.2122 17.0771 58.7181 16.847 59.0918 16.3867C59.4655 15.9219 59.6523 15.2747 59.6523 14.4453C59.6523 13.6159 59.4655 12.971 59.0918 12.5107C58.7181 12.0459 58.2122 11.8135 57.5742 11.8135C56.9362 11.8135 56.4281 12.0459 56.0498 12.5107C55.6761 12.9756 55.4893 13.6204 55.4893 14.4453C55.4893 15.2702 55.6761 15.915 56.0498 16.3799Z" fill="#00A775"/>
<rect x="0.5" y="0.5" width="69" height="25" rx="3.5" stroke="#28A879"/>
</svg>
