<svg width="240" height="52" viewBox="0 0 240 52" fill="none" xmlns="http://www.w3.org/2000/svg">
<rect width="240" height="52" fill="#091336"/>
<path d="M56.6797 31V22.5156H56.5625L50.8203 31H49.1172V19.7266H50.8516V28.2344H50.9688L56.7109 19.7266H58.4141V31H56.6797ZM67.4531 25.4141H65.8281C65.7135 25.0078 65.4948 24.6771 65.1719 24.4219C64.849 24.1667 64.4375 24.0391 63.9375 24.0391C63.2865 24.0391 62.763 24.2995 62.3672 24.8203C61.9766 25.3359 61.7812 26.026 61.7812 26.8906C61.7812 27.776 61.9766 28.474 62.3672 28.9844C62.763 29.4896 63.2917 29.7422 63.9531 29.7422C64.4479 29.7422 64.8568 29.625 65.1797 29.3906C65.5026 29.151 65.724 28.8151 65.8438 28.3828H67.4688C67.349 29.2161 66.9688 29.888 66.3281 30.3984C65.6927 30.9036 64.8958 31.1562 63.9375 31.1562C62.7552 31.1562 61.8151 30.7734 61.1172 30.0078C60.4193 29.2422 60.0703 28.2031 60.0703 26.8906C60.0703 25.599 60.4193 24.5677 61.1172 23.7969C61.8203 23.0208 62.7552 22.6328 63.9219 22.6328C64.8958 22.6328 65.6953 22.8984 66.3203 23.4297C66.9505 23.9557 67.3281 24.6172 67.4531 25.4141ZM74.1484 31V24.1172H70.5078V31H68.8281V22.7812H75.8359V31H74.1484ZM84.0312 30.0156C83.3229 30.776 82.3776 31.1562 81.1953 31.1562C80.013 31.1562 79.0677 30.776 78.3594 30.0156C77.651 29.25 77.2969 28.2083 77.2969 26.8906C77.2969 25.5781 77.651 24.5417 78.3594 23.7812C79.0677 23.0156 80.013 22.6328 81.1953 22.6328C82.3776 22.6328 83.3229 23.0156 84.0312 23.7812C84.7396 24.5417 85.0938 25.5781 85.0938 26.8906C85.0938 28.2083 84.7396 29.25 84.0312 30.0156ZM81.1953 29.7656C81.8672 29.7656 82.3984 29.513 82.7891 29.0078C83.1797 28.5026 83.375 27.7969 83.375 26.8906C83.375 25.9896 83.1771 25.2865 82.7812 24.7812C82.3906 24.276 81.862 24.0234 81.1953 24.0234C80.5286 24.0234 79.9974 24.276 79.6016 24.7812C79.2109 25.2865 79.0156 25.9896 79.0156 26.8906C79.0156 27.7969 79.2109 28.5026 79.6016 29.0078C79.9974 29.513 80.5286 29.7656 81.1953 29.7656ZM88.7344 27.2578C88.7031 27.7474 88.6536 28.1797 88.5859 28.5547C88.5182 28.9297 88.4193 29.2812 88.2891 29.6094C88.1589 29.9323 88 30.2005 87.8125 30.4141C87.625 30.6224 87.3906 30.7865 87.1094 30.9062C86.8333 31.0208 86.513 31.0781 86.1484 31.0781C85.9193 31.0781 85.7292 31.0495 85.5781 30.9922V29.5078C85.7188 29.5495 85.8672 29.5703 86.0234 29.5703C86.3984 29.5703 86.6745 29.3672 86.8516 28.9609C87.0286 28.5547 87.1432 27.9635 87.1953 27.1875L87.4766 22.7812H93.1719V31H91.4922V24.1172H88.9609L88.7344 27.2578ZM100.383 31V27.4219H96.6641V31H94.9844V22.7812H96.6641V26.0938H100.383V22.7812H102.062V31H100.383ZM105.555 31H103.891V22.7812H105.555V28.5391H105.617L109.414 22.7812H111.078V31H109.414V25.2266H109.352L105.555 31ZM119.141 22.7812V24.1172H116.562V31H114.883V24.1172H112.305V22.7812H119.141ZM125.094 24.5859C124.724 24.1901 124.247 23.9922 123.664 23.9922C123.081 23.9922 122.596 24.1927 122.211 24.5938C121.826 24.9896 121.612 25.5026 121.57 26.1328H125.68C125.659 25.4974 125.464 24.9818 125.094 24.5859ZM125.672 28.5859H127.273C127.154 29.3411 126.768 29.9583 126.117 30.4375C125.466 30.9167 124.672 31.1562 123.734 31.1562C122.531 31.1562 121.583 30.7786 120.891 30.0234C120.203 29.263 119.859 28.2318 119.859 26.9297C119.859 25.638 120.203 24.599 120.891 23.8125C121.583 23.026 122.508 22.6328 123.664 22.6328C124.799 22.6328 125.701 23.0052 126.367 23.75C127.034 24.4896 127.367 25.4844 127.367 26.7344V27.3125H121.562V27.4141C121.562 28.1328 121.763 28.7083 122.164 29.1406C122.565 29.5729 123.102 29.7891 123.773 29.7891C124.247 29.7891 124.654 29.6797 124.992 29.4609C125.331 29.2422 125.557 28.9505 125.672 28.5859ZM131 27.2578C130.969 27.7474 130.919 28.1797 130.852 28.5547C130.784 28.9297 130.685 29.2812 130.555 29.6094C130.424 29.9323 130.266 30.2005 130.078 30.4141C129.891 30.6224 129.656 30.7865 129.375 30.9062C129.099 31.0208 128.779 31.0781 128.414 31.0781C128.185 31.0781 127.995 31.0495 127.844 30.9922V29.5078C127.984 29.5495 128.133 29.5703 128.289 29.5703C128.664 29.5703 128.94 29.3672 129.117 28.9609C129.294 28.5547 129.409 27.9635 129.461 27.1875L129.742 22.7812H135.438V31H133.758V24.1172H131.227L131 27.2578ZM138.914 31H137.25V22.7812H138.914V28.5391H138.977L142.773 22.7812H144.438V31H142.773V25.2266H142.711L138.914 31Z" fill="white" fill-opacity="0.6"/>
<g clip-path="url(#clip0_19129_2838)">
<path d="M24 20C25.1 20 26 20.9 26 22C26 23.1 25.1 24 24 24C22.9 24 22 23.1 22 22C22 20.9 22.9 20 24 20ZM24 29C26.7 29 29.8 30.29 30 31V32H18V31.01C18.2 30.29 21.3 29 24 29ZM24 18C21.79 18 20 19.79 20 22C20 24.21 21.79 26 24 26C26.21 26 28 24.21 28 22C28 19.79 26.21 18 24 18ZM24 27C21.33 27 16 28.34 16 31V34H32V31C32 28.34 26.67 27 24 27Z" fill="white" fill-opacity="0.6"/>
</g>
<defs>
<clipPath id="clip0_19129_2838">
<rect width="24" height="24" fill="white" transform="translate(12 14)"/>
</clipPath>
</defs>
</svg>
