<svg width="24" height="29" viewBox="0 0 24 29" fill="none" xmlns="http://www.w3.org/2000/svg">
<g id="&#208;&#186;&#209;&#131;&#209;&#128;&#209;&#129;&#208;&#190;&#209;&#128;">
<path id="Vector 1" d="M1.5 15L8.5 28H19.5L20.5 27L23 20L22.5 11L20.5 10.5L19 14L18.5 9H16.5L15.5 13.5L14.5 7.5H12.5L11.5 11.5V2.5L9.5 1.5L8.5 3L8 17L3 13H1.5V15Z" fill="white"/>
<path id="Vector" d="M21.1383 8.95013C20.7378 8.95013 20.3564 9.03567 20.0101 9.18936C19.589 8.10044 18.5562 7.32848 17.351 7.32848C16.9034 7.32848 16.4793 7.43511 16.1017 7.62473C15.6238 6.68179 14.666 6.03608 13.5639 6.03608C13.24 6.03608 12.929 6.09262 12.6384 6.19543V2.94891C12.6384 1.32296 11.3547 0 9.77657 0C8.19865 0 6.91498 1.32296 6.91498 2.94891V14.6312L4.85389 12.218C4.83948 12.2015 4.82479 12.1853 4.80952 12.1698C4.26835 11.6156 3.54808 11.3083 2.78145 11.3045C2.77649 11.3045 2.77181 11.3045 2.76685 11.3045C2.00203 11.3045 1.28596 11.6067 0.74927 12.1563C-0.197025 13.125 -0.249406 14.5629 0.605962 16.1019C1.71322 18.0928 2.91684 19.9701 3.97887 21.6266C4.75495 22.8372 5.48809 23.9806 6.02402 24.926C6.48877 25.7463 7.72245 28.407 7.73504 28.4339C7.89514 28.7796 8.23567 29 8.6093 29H20.8478C21.2683 29 21.6405 28.7224 21.7694 28.3131C21.9976 27.5867 24 21.1463 24 18.659V11.8993C23.9998 10.273 22.7162 8.95013 21.1383 8.95013ZM20.2128 11.8992C20.2128 11.3653 20.628 10.931 21.1383 10.931C21.6489 10.931 22.0641 11.3653 22.0641 11.8992V18.6589C22.0641 20.3118 20.8228 24.7555 20.1378 27.0189H9.21965C8.81835 26.1644 8.06622 24.5814 7.6984 23.9321C7.13576 22.9393 6.3884 21.7738 5.59724 20.5396C4.55096 18.908 3.36527 17.0585 2.28826 15.1222C2.00718 14.6163 1.74957 13.9343 2.11843 13.5568C2.29046 13.3804 2.52212 13.2882 2.7721 13.2855C3.01607 13.2867 3.24553 13.3809 3.42138 13.5512L7.15427 17.9212C7.41951 18.232 7.84581 18.3416 8.22307 18.1966C8.60071 18.0515 8.85079 17.6819 8.85079 17.2693V2.94891C8.85079 2.4151 9.26612 1.98098 9.77666 1.98098C10.2873 1.98098 10.7027 2.4151 10.7027 2.94891V12.1968C10.7027 12.7437 11.1362 13.1872 11.6706 13.1872C12.205 13.1872 12.6384 12.7437 12.6384 12.1968V8.9847C12.6384 8.45118 13.0537 8.01715 13.564 8.01715C14.0746 8.01715 14.4898 8.45118 14.4898 8.9847V13.4887C14.4898 14.036 14.9232 14.4792 15.4576 14.4792C15.9921 14.4792 16.4255 14.036 16.4255 13.4887V10.2774C16.4255 9.74358 16.8408 9.30936 17.3511 9.30936C17.8618 9.30936 18.2772 9.74358 18.2772 10.2774V14.7816C18.2772 15.3285 18.7106 15.7722 19.2451 15.7722C19.7796 15.7722 20.213 15.3285 20.213 14.7816V11.8992H20.2128Z" fill="black"/>
</g>
</svg>
